<svg version="1.1" id="Слой_1" xmlns="http://www.w3.org/2000/svg" x="0" y="0" viewBox="0 0 512 512" xml:space="preserve"><path d="M2755 5108c-609-69-1059-529-1189-1218-89-468-47-907 116-1235 130-261 348-482 602-611 53-27 96-52 96-55s-234-430-520-947c-408-738-520-949-520-976 0-64 9-66 316-66 244 0 274 2 293 18 12 9 234 433 494 942l473 925 167 3 167 2V962c0-887 1-930 18-945 16-15 49-17 253-17 170 0 238 3 247 12s12 588 12 2544v2533l-22 15c-20 14-80 16-473 15-247-1-486-6-530-11zm495-1603V2340h-172c-197 0-269 9-386 49-109 38-179 81-273 169-117 110-194 234-249 402-104 318-99 783 10 1112 87 259 242 446 446 539 110 50 159 57 402 58l222 1V3505z" fill="#ab66d9" transform="matrix(.1 0 0 -.1 0 512)"/></svg>