<svg version="1.1" id="Слой_1" xmlns="http://www.w3.org/2000/svg" x="0" y="0" viewBox="0 0 56 56" xml:space="preserve"><path d="M0 28C0 12.536 12.536 0 28 0s28 12.536 28 28-12.536 28-28 28S0 43.464 0 28z" fill="#ab66d9"/><path d="M27.433 0c-.132 11.519-.886 17.966-5.176 22.257S11.519 27.301 0 27.433v1.672c11.519.132 17.966.885 22.257 5.176 4.223 4.224 5.02 10.536 5.17 21.719h1.685c.15-11.183.946-17.495 5.17-21.719s10.536-5.02 21.719-5.17v-1.685c-11.183-.15-17.495-.946-21.719-5.17-4.291-4.29-5.045-10.737-5.177-22.256h-1.672z" fill-rule="evenodd" clip-rule="evenodd" fill="#fff"/></svg>