<svg version="1.1" id="Layer_1" xmlns="http://www.w3.org/2000/svg" x="0" y="0" viewBox="0 0 55.79 39.574" xml:space="preserve"><path d="M55.092 7.882c-.529-4.177-2.942-6.797-7.225-7.184C42.963.255 32.347 0 27.423 0 17.351 0 12.85.246 8.087.739 3.548 1.208 1.561 3.225.78 7.389.233 10.307 0 13.04 0 19.499c0 5.802.274 9.451.698 12.521.583 4.216 3.477 6.585 7.718 6.938 4.934.411 14.818.616 19.705.616 4.722 0 15.349-.246 20.074-.78 4.229-.478 6.24-2.737 6.897-6.897 0 0 .698-4.557.698-12.439 0-4.488-.328-8.662-.698-11.576z" fill="#ab66d9"/><path fill="#fff" d="M21.963 27.628V11.59l15.271 7.937z"/></svg>