<svg width="74" height="74" fill="none" xmlns="http://www.w3.org/2000/svg"><g clip-path="url(#clip0)"><path d="M73.87 59.786l-2.526-6.98H61.94l-2.526 6.98a2.167 2.167 0 00.068 1.642l5.19 11.308a2.168 2.168 0 003.941 0l5.19-11.308a2.168 2.168 0 00.069-1.642z" fill="#F4F1F1"/><path d="M73.87 59.786l-2.526-6.98h-4.702V74c.847 0 1.617-.494 1.97-1.264l5.19-11.308a2.168 2.168 0 00.069-1.642z" fill="#E7DFDD"/><path d="M52.903 0H2.168C.971 0 0 .97 0 2.168v69.664C0 73.029.97 74 2.168 74h50.735c1.197 0 2.168-.97 2.168-2.168V2.168A2.17 2.17 0 0052.903 0z" fill="#F4F1F1"/><path d="M52.903 0H27.535v74h25.368c1.197 0 2.168-.97 2.168-2.168V2.168A2.17 2.17 0 0052.903 0z" fill="#E7DFDD"/><path d="M48.187 20.766H34.419a2.168 2.168 0 010-4.336h13.768a2.168 2.168 0 010 4.336zm0 13.154H34.419a2.168 2.168 0 010-4.337h13.768a2.168 2.168 0 010 4.336zm0 13.152H34.419a2.168 2.168 0 010-4.336h13.768a2.168 2.168 0 010 4.336zm0 13.657H34.419a2.168 2.168 0 010-4.336h13.768a2.168 2.168 0 010 4.336z" fill="#38336B"/><path d="M12.185 23.355a2.167 2.167 0 01-1.533-.635L7.55 19.616a2.168 2.168 0 113.066-3.066l1.57 1.57 5.052-5.052a2.168 2.168 0 013.066 3.066l-6.585 6.586a2.167 2.167 0 01-1.533.635zm0 13.153a2.167 2.167 0 01-1.533-.635L7.55 32.769a2.168 2.168 0 113.066-3.066l1.57 1.57 5.052-5.051a2.168 2.168 0 113.066 3.066l-6.585 6.585a2.168 2.168 0 01-1.533.635zm0 13.152a2.167 2.167 0 01-1.533-.634L7.55 45.922a2.168 2.168 0 113.066-3.066l1.57 1.57 5.052-5.052a2.168 2.168 0 013.066 3.066l-6.585 6.586a2.168 2.168 0 01-1.533.635z" fill="#FFB500"/><path d="M74 7.358v45.18a2.168 2.168 0 01-2.168 2.167h-10.38a2.167 2.167 0 01-2.168-2.168V7.358c0-4.057 3.3-7.358 7.358-7.358C70.699 0 74 3.301 74 7.358z" fill="#C691F0"/><path d="M66.642 0v54.705h5.19c1.197 0 2.168-.97 2.168-2.168V7.358C74 3.301 70.699 0 66.642 0z" fill="#AB66D9"/><path d="M59.284 13.717H74v4.336H59.284v-4.336z" fill="#FFD18B"/><path d="M66.642 13.717H74v4.336h-7.358v-4.336z" fill="#BA7B00"/></g><defs><clipPath id="clip0"><path fill="#fff" d="M0 0h74v74H0z"/></clipPath></defs></svg>