<svg width="72" height="74" fill="none" xmlns="http://www.w3.org/2000/svg"><path d="M32.256 13.616c-.343 0-.682-.158-.9-.455-1.016-1.38-2.823-2.963-5.666-2.66-3.348.357-5.834-.708-7.33-1.664a1.117 1.117 0 011.203-1.882c1.195.764 3.187 1.615 5.89 1.326 4.103-.435 6.586 2.04 7.701 3.556a1.117 1.117 0 01-.898 1.779z" fill="#FFD064"/><path d="M20.565 19.545a1.117 1.117 0 01-.95-1.701c1.43-2.331 4.054-3.934 7.585-4.634 2.575-.51 4.735-.37 4.825-.364a1.117 1.117 0 01-.151 2.228c-.078-.005-7.66-.455-10.356 3.939a1.117 1.117 0 01-.953.532z" fill="#FFD064"/><path d="M37.396 62.333c18.339 0 28.479-26.899-.48-47.674a2.717 2.717 0 01-1.139-2.236c.008-.732.24-1.443.66-2.044 1.356-1.936 3.308-5.247 4.478-7.915.28-.639-.12-1.326-.87-1.326-1.74 0-1.74-1.138-3.48-1.138-1.739 0-1.739 1.138-3.478 1.138-1.483 0-2.091-1.275-2.812-.347-2.101 2.705 5.097 12.217 5.097 12.217-31.793 20.9-21.541 49.325-2.77 49.325h4.794z" fill="#EABC6B"/><path d="M44.605 13.008S51.911 3.526 49.81.806c-.716-.927-1.326.332-2.807.332-1.74 0-1.74-1.138-3.48-1.138-1.739 0-1.739 1.138-3.479 1.138-.085 0-.163-.005-.241-.01-.7 2.996-3.849 7.664-5.651 10.163a46.948 46.948 0 001.22 1.717c-.423.279-.839.56-1.248.84 30.377 20.88 20.212 48.485 1.635 48.485h11.73c18.828 0 29.015-28.355-2.884-49.325z" fill="#E8AE4D"/><path d="M45.964 16.38c-4.245 1.073-8.44 1.073-12.685 0-1.478-.373-2.315-2.034-1.784-3.545l.018-.05c.446-1.267 1.71-1.978 2.95-1.666 3.476.872 6.84.873 10.317 0 1.24-.312 2.504.4 2.95 1.665l.017.051c.532 1.51-.306 3.172-1.783 3.546z" fill="#FFE07D"/><path d="M6.05 67.21l16.166 6.017c1.373.511 2.827.773 4.292.773h16.66c2.332 0 4.616-.662 6.586-1.91l20.86-13.22a3.662 3.662 0 00.597-4.797c-1.133-1.665-3.007-1.954-5.07-.98l-20.31 8.943.024-3.295a5.898 5.898 0 00-5.043-5.256l-12.368-1.424c-2.853-.404-4.279-1.36-6.766-2.815a22.167 22.167 0 00-11.194-3.033H6.05V67.21z" fill="#FFDDCE"/><path d="M21.235 70.02a12.91 12.91 0 004.511.813h17.515c1.865 0 3.7-.404 5.383-1.174l12.247-7.761c1.138-.721 1.86-1.976 1.824-3.323a3.837 3.837 0 00-.666-2.057s-.373-.64-.756-1.29l-15.462 6.808.024-3.295a5.898 5.898 0 00-5.043-5.256l-12.368-1.424c-2.853-.404-4.279-1.36-6.766-2.815a22.167 22.167 0 00-11.194-3.033H6.05v18.156l15.185 5.652z" fill="#FFDDCE"/><path d="M71.21 54.073c-1.132-1.665-3.006-1.954-5.069-.98l-5.586 2.46.485.77a3.661 3.661 0 01-.596 4.798L48.29 68.824a12.301 12.301 0 01-5.12 1.117H26.508c-1.465 0-2.918-.262-4.291-.773L6.05 63.151v4.059l16.166 6.017c1.373.511 2.827.773 4.292.773h16.661c2.332 0 4.615-.662 6.585-1.91l20.86-13.22a3.662 3.662 0 00.597-4.797z" fill="#FFCBBE"/><path d="M44.339 55.346l-.001.08.052-.023-.051-.056z" fill="#F5DBCC"/><path d="M45.83 62.034H33.203a1.116 1.116 0 110-2.233h12.645l-.016 2.233z" fill="#FFCBBE"/><path d="M9.528 70.43c0 1.173-.95 2.124-2.123 2.124H2.279A2.124 2.124 0 01.155 70.43V44.424c0-1.173.95-2.124 2.124-2.124h5.126c1.173 0 2.123.95 2.123 2.124V70.43z" fill="#AB66D9"/><path d="M42.448 34.605a60.77 60.77 0 01-1.416-.52v-7.12c1.321.218 2.114.902 2.172.953a1.116 1.116 0 001.508-1.647c-.079-.073-1.446-1.305-3.68-1.562v-1.587a1.117 1.117 0 10-2.233 0V24.8c-.27.051-.545.117-.829.202-1.894.57-3.31 2.195-3.695 4.239-.35 1.854.239 3.638 1.535 4.655.744.583 1.68 1.118 2.989 1.689v8.83c-1.292-.053-2.086-.297-3.473-1.204a1.116 1.116 0 10-1.223 1.869c1.823 1.192 3.042 1.503 4.696 1.568v1.772a1.117 1.117 0 102.233 0v-1.85c3.135-.51 4.964-3.047 5.362-5.413.497-2.958-1.052-5.53-3.946-6.552zm-5.26-2.467c-.638-.5-.913-1.452-.718-2.484.18-.957.838-2.12 2.145-2.514.062-.018.123-.035.184-.05v6.03c-.669-.333-1.193-.654-1.611-.982zm7.004 8.648c-.247 1.465-1.322 3.03-3.16 3.5v-7.818c.218.08.44.16.672.242 2.779.982 2.606 3.368 2.488 4.076z" fill="#fff"/></svg>