<svg width="42" height="43" fill="none" xmlns="http://www.w3.org/2000/svg"><g clip-path="url(#clip0)"><path d="M37.21 2c-2.28-.004-4.13 1.876-4.134 4.2a4.25 4.25 0 001.162 2.934l-7.553 15.4a3.924 3.924 0 00-.5-.052 4.047 4.047 0 00-1.557.315l-5.863-6.724a4.228 4.228 0 00.529-2.021c0-2.329-1.851-4.216-4.135-4.216-2.283 0-4.134 1.887-4.134 4.216a4.225 4.225 0 001.014 2.734L4.873 31.584a4.064 4.064 0 00-.739-.076C1.851 31.508 0 33.395 0 35.723s1.851 4.216 4.134 4.216c2.284 0 4.135-1.888 4.135-4.216a4.225 4.225 0 00-1.015-2.734l7.167-12.798a3.858 3.858 0 002.289-.239l5.864 6.724a4.227 4.227 0 00-.524 2.022c-.007 2.328 1.838 4.22 4.122 4.228 2.283.007 4.14-1.875 4.147-4.203a4.259 4.259 0 00-1.163-2.944l7.553-15.4c.165.028.333.045.5.052 2.283 0 4.135-1.887 4.135-4.216C41.344 3.887 39.492 2 37.209 2zM4.133 37.129c-.76 0-1.378-.63-1.378-1.406 0-.776.617-1.405 1.378-1.405.761 0 1.378.63 1.378 1.405 0 .776-.616 1.406-1.378 1.406zM15.16 17.457c-.76 0-1.378-.63-1.378-1.406 0-.776.617-1.405 1.378-1.405.761 0 1.378.63 1.378 1.405 0 .776-.617 1.405-1.378 1.405zm11.025 12.646c-.76 0-1.378-.63-1.378-1.405 0-.776.617-1.405 1.378-1.405.761 0 1.378.629 1.378 1.405s-.617 1.405-1.378 1.405zM37.21 7.62c-.76 0-1.378-.63-1.378-1.406 0-.776.617-1.405 1.378-1.405.761 0 1.378.63 1.378 1.405 0 .777-.617 1.406-1.378 1.406z" fill="#AB66D9"/></g><defs><clipPath id="clip0"><path fill="#fff" d="M0 0h41.344v42.154H0z"/></clipPath></defs></svg>