<svg width="42" height="43" fill="none" xmlns="http://www.w3.org/2000/svg"><g clip-path="url(#clip0)" fill="#FFB500"><path d="M20.672 0C9.255 0 0 9.437 0 21.077c0 11.64 9.255 21.077 20.672 21.077 11.416 0 20.671-9.436 20.671-21.077C41.331 9.442 32.084.012 20.672 0zm0 39.143c-9.786 0-17.719-8.088-17.719-18.066S10.886 3.011 20.672 3.011c9.785 0 17.718 8.088 17.718 18.066-.01 9.973-7.937 18.055-17.718 18.066z"/><path d="M20.812 33.088c6.524 0 11.813-5.392 11.813-12.044S27.336 9 20.812 9C14.29 9 9 14.392 9 21.044s5.289 12.044 11.812 12.044z"/></g><defs><clipPath id="clip0"><path fill="#fff" d="M0 0h41.344v42.154H0z"/></clipPath></defs></svg>