<svg width="42" height="43" viewBox="0 0 42 43" fill="none" xmlns="http://www.w3.org/2000/svg">
<g clip-path="url(#clip0)">
<path d="M20.6717 0C9.25506 0 0 9.43653 0 21.0771C0 32.7176 9.25506 42.1541 20.6717 42.1541C32.0884 42.1541 41.3435 32.7176 41.3435 21.0771C41.3314 9.44174 32.0834 0.0124381 20.6717 0ZM20.6717 39.1432C10.886 39.1432 2.95308 31.0547 2.95308 21.0771C2.95308 11.0994 10.886 3.01098 20.6717 3.01098C30.4575 3.01098 38.3904 11.0994 38.3904 21.0771C38.3798 31.0503 30.4532 39.1324 20.6717 39.1432Z" fill="#FFB500"/>
<path d="M20.8124 33.088C27.3362 33.088 32.6248 27.6958 32.6248 21.044C32.6248 14.3923 27.3362 9 20.8124 9C14.2886 9 9 14.3923 9 21.044C9 27.6958 14.2886 33.088 20.8124 33.088Z" fill="#FFB500"/>
</g>
<defs>
<clipPath id="clip0">
<rect width="41.3436" height="42.1542" fill="white"/>
</clipPath>
</defs>
</svg>
