<?xml version="1.0" encoding="iso-8859-1"?>
<!-- Generator: Adobe Illustrator 24.1.2, SVG Export Plug-In . SVG Version: 6.00 Build 0)  -->
<svg version="1.1" id="&#x421;&#x43B;&#x43E;&#x439;_1"
	 xmlns="http://www.w3.org/2000/svg" xmlns:xlink="http://www.w3.org/1999/xlink" x="0px" y="0px" viewBox="0 0 512 512"
	 style="enable-background:new 0 0 512 512;" xml:space="preserve">
<g transform="translate(0.000000,512.000000) scale(0.100000,-0.100000)">
	<path style="fill:#AB66D9;" d="M2755,5108c-609-69-1059-529-1189-1218c-89-468-47-907,116-1235c130-261,348-482,602-611
		c53-27,96-52,96-55s-234-430-520-947c-408-738-520-949-520-976c0-64,9-66,316-66c244,0,274,2,293,18c12,9,234,433,494,942l473,925
		l167,3l167,2V962c0-887,1-930,18-945c16-15,49-17,253-17c170,0,238,3,247,12s12,588,12,2544v2533l-22,15c-20,14-80,16-473,15
		C3038,5118,2799,5113,2755,5108z M3250,3505V2340h-172c-197,0-269,9-386,49c-109,38-179,81-273,169c-117,110-194,234-249,402
		c-104,318-99,783,10,1112c87,259,242,446,446,539c110,50,159,57,402,58l222,1V3505z"/>
</g>
</svg>
