<?xml version="1.0" encoding="iso-8859-1"?>
<!-- Generator: Adobe Illustrator 24.1.2, SVG Export Plug-In . SVG Version: 6.00 Build 0)  -->
<svg version="1.1" id="&#x421;&#x43B;&#x43E;&#x439;_1"
	 xmlns="http://www.w3.org/2000/svg" xmlns:xlink="http://www.w3.org/1999/xlink" x="0px" y="0px" viewBox="0 0 56 56"
	 style="enable-background:new 0 0 56 56;" xml:space="preserve">
<path style="fill:#AB66D9;" d="M0,28C0,12.536,12.536,0,28,0s28,12.536,28,28S43.464,56,28,56S0,43.464,0,28z"/>
<path style="fill-rule:evenodd;clip-rule:evenodd;fill:#FFFFFF;" d="M27.433,0c-0.132,11.519-0.886,17.966-5.176,22.257
	S11.519,27.301,0,27.433v1.672c11.519,0.132,17.966,0.885,22.257,5.176c4.223,4.224,5.02,10.536,5.17,21.719h1.685
	c0.15-11.183,0.946-17.495,5.17-21.719s10.536-5.02,21.719-5.17v-1.685c-11.183-0.15-17.495-0.946-21.719-5.17
	C29.991,17.966,29.237,11.519,29.105,0H27.433z"/>
</svg>
