<svg width="74" height="74" viewBox="0 0 74 74" fill="none" xmlns="http://www.w3.org/2000/svg">
<path d="M4.33594 47.6953H17.4883V71.832H4.33594V47.6953Z" fill="#FED843"/>
<path d="M39.168 43.3594H52.3203V71.832H39.168V43.3594Z" fill="#FED843"/>
<path d="M21.8242 34.6875H34.832V71.832H21.8242V34.6875Z" fill="#A7F2F2"/>
<path d="M56.6562 26.0156H69.6641V71.832H56.6562V26.0156Z" fill="#A7F2F2"/>
<path d="M10.9844 47.6953H17.4883V71.832H10.9844V47.6953Z" fill="#FABE2C"/>
<path d="M28.3281 34.6875H34.832V71.832H28.3281V34.6875Z" fill="#AB66D9"/>
<path d="M45.6719 43.3594H52.3203V71.832H45.6719V43.3594Z" fill="#FABE2C"/>
<path d="M63.1602 26.0156H69.6641V71.832H63.1602V26.0156Z" fill="#AB66D9"/>
<path d="M56.6563 0V4.33594H66.5984L45.6719 25.1179L37 16.4461L28.3281 7.77419L0.635216 35.3227L3.70072 38.3882L28.3281 13.9055L37 22.5774L45.6719 31.2492L69.6641 7.40159V17.3438H74V0L56.6563 0Z" fill="#9A4FD5"/>
<path d="M69.6641 7.40159V17.3438H74V0H56.6562V4.33594H66.5984L45.6719 25.1179L37 16.4461V22.5774L45.6719 31.2492L69.6641 7.40159Z" fill="#AB66D9"/>
<path d="M37 69.6641H0V74H37H74V69.6641H37Z" fill="#2D5177"/>
<path d="M37 69.6641H74V74H37V69.6641Z" fill="#32405D"/>
</svg>
